# Blender 4.4.3
# www.blender.org
mtllib tomato_with_material.mtl
o Tomato.001
v 22.619331 0.400451 1.376666
v 22.876972 0.400451 1.998963
v 22.619122 0.400451 2.621174
v 21.996824 0.400451 2.878814
v 21.374613 0.400451 2.620963
v 21.116972 0.400451 1.998665
v 21.374825 0.400451 1.376455
v 21.997122 0.400451 1.118814
v 22.619331 0.836258 1.376665
v 22.876972 0.836258 1.998963
v 22.619122 0.836258 2.621173
v 21.996824 0.836258 2.878814
v 21.374613 0.836258 2.620963
v 21.116972 0.836258 1.998665
v 21.374825 0.836258 1.376454
v 21.997124 0.836258 1.118814
v 22.444563 1.073955 1.551376
v 22.629852 1.109938 1.998921
v 22.444410 1.073955 2.446404
v 21.996866 1.109938 2.631694
v 21.549383 1.073955 2.446252
v 21.364092 1.109938 1.998707
v 21.549536 1.073955 1.551224
v 21.997080 1.109938 1.365934
v 22.459639 0.134133 1.536305
v 22.651171 0.134133 1.998925
v 22.459482 0.134133 2.461480
v 21.996862 0.134133 2.653012
v 21.534307 0.134133 2.461323
v 21.342775 0.134133 1.998703
v 21.534464 0.134133 1.536149
v 21.997084 0.134133 1.344617
v 22.309170 0.005335 1.998867
v 22.217766 0.005335 1.778095
v 22.217691 0.005335 2.219608
v 21.996920 0.005335 2.311011
v 21.776178 0.005335 2.219533
v 21.684776 0.005335 1.998761
v 21.776253 0.005335 1.778021
v 21.997025 0.005335 1.686618
v 22.231504 1.198843 1.764361
v 22.328596 1.234826 1.998870
v 22.231426 1.198843 2.233347
v 21.996916 1.234826 2.330437
v 21.762440 1.198843 2.233267
v 21.665350 1.234826 1.998758
v 21.762520 1.198843 1.764282
v 21.997030 1.234826 1.667191
v 21.996973 0.093257 1.998814
v 22.024813 1.156096 1.970984
v 22.036337 1.160367 1.998821
v 22.024803 1.156096 2.026654
v 21.996965 1.160367 2.038179
v 21.969133 1.156096 2.026644
v 21.957607 1.160367 1.998807
v 21.969143 1.156096 1.970974
v 21.996979 1.160367 1.959449
v 22.034027 1.377681 1.961771
v 22.049368 1.377112 1.998823
v 22.034016 1.377681 2.035869
v 21.996964 1.377112 2.051209
v 21.959917 1.377681 2.035856
v 21.944578 1.377112 1.998805
v 21.959930 1.377681 1.961759
v 21.996983 1.377112 1.946419
v 21.943224 1.305529 2.254129
v 21.854403 1.291898 2.217304
v 22.139544 1.291898 1.780324
v 22.050722 1.305529 1.743499
v 21.922421 1.484234 2.178741
v 22.071526 1.484234 1.818887
v 22.258354 1.314549 2.073169
v 22.234329 1.305657 2.131107
v 21.735590 1.314549 1.924459
v 21.759615 1.305657 1.866521
v 22.127609 1.474987 2.052943
v 21.866335 1.474987 1.944685
v 22.024813 1.156096 1.970984
v 22.024813 1.156096 1.970984
v 22.036337 1.160367 1.998821
v 22.036337 1.160367 1.998821
v 22.024803 1.156096 2.026654
v 22.024803 1.156096 2.026654
v 21.996965 1.160367 2.038179
v 21.996965 1.160367 2.038179
v 21.969133 1.156096 2.026644
v 21.969133 1.156096 2.026644
v 21.957607 1.160367 1.998807
v 21.957607 1.160367 1.998807
v 21.969143 1.156096 1.970974
v 21.969143 1.156096 1.970974
v 21.996979 1.160367 1.959449
v 21.996979 1.160367 1.959449
v 22.034027 1.377681 1.961771
v 22.049368 1.377112 1.998823
v 22.034016 1.377681 2.035869
v 21.996964 1.377112 2.051209
v 21.959917 1.377681 2.035856
v 21.944578 1.377112 1.998805
v 21.959930 1.377681 1.961759
v 21.996983 1.377112 1.946419
vn 0.6701 -0.3199 -0.6698
vn 0.6642 0.3435 -0.6640
vn 0.9371 0.3491 0.0002
vn 0.9474 -0.3199 0.0002
vn 0.6640 0.3435 0.6642
vn 0.6698 -0.3199 0.6701
vn -0.0002 0.3491 0.9371
vn -0.0002 -0.3199 0.9474
vn -0.6642 0.3435 0.6640
vn -0.6701 -0.3199 0.6698
vn -0.9371 0.3491 -0.0002
vn -0.9474 -0.3199 -0.0002
vn -0.6640 0.3435 -0.6642
vn -0.6698 -0.3199 -0.6701
vn 0.0002 0.3491 -0.9371
vn 0.0002 -0.3199 -0.9474
vn 0.4329 0.7908 -0.4327
vn 0.5775 0.8164 0.0001
vn 0.4327 0.7908 0.4329
vn -0.0001 0.8164 0.5775
vn -0.4329 0.7908 0.4327
vn -0.5775 0.8164 -0.0001
vn -0.4327 0.7908 -0.4329
vn 0.0001 0.8164 -0.5775
vn 0.6147 -0.7887 0.0001
vn 0.4347 -0.7887 -0.4346
vn 0.4346 -0.7887 0.4347
vn -0.0001 -0.7887 0.6147
vn -0.4347 -0.7887 0.4346
vn -0.6147 -0.7887 -0.0001
vn -0.4346 -0.7887 -0.4347
vn 0.0001 -0.7887 -0.6147
vn 0.1197 -0.9928 -0.0000
vn 0.0847 -0.9928 -0.0847
vn 0.0847 -0.9928 0.0847
vn -0.0000 -0.9928 0.1197
vn -0.0847 -0.9928 0.0847
vn -0.1197 -0.9928 -0.0000
vn -0.0847 -0.9928 -0.0847
vn -0.0000 -0.9928 -0.1197
vn 0.1498 0.9773 -0.1497
vn 0.1253 0.9921 -0.0000
vn 0.1497 0.9773 0.1498
vn -0.0000 0.9921 0.1253
vn -0.1498 0.9773 0.1497
vn -0.1253 0.9921 -0.0000
vn -0.1497 0.9773 -0.1498
vn -0.0000 0.9921 -0.1253
vn -0.0000 -1.0000 -0.0000
vn -0.1024 0.9895 0.1023
vn -0.2469 0.9690 -0.0000
vn -0.1023 0.9895 -0.1024
vn -0.0000 0.9690 -0.2469
vn 0.1024 0.9895 -0.1023
vn 0.2469 0.9690 -0.0000
vn 0.1023 0.9895 0.1024
vn -0.0000 0.9690 0.2469
vn 0.9982 -0.0593 0.0002
vn 0.7060 -0.0594 -0.7057
vn 0.7057 -0.0594 0.7060
vn -0.0002 -0.0593 0.9982
vn -0.7060 -0.0594 0.7057
vn -0.9982 -0.0593 -0.0002
vn -0.7057 -0.0594 -0.7060
vn 0.0002 -0.0593 -0.9982
vn -0.0000 1.0000 -0.0000
vn 0.0950 0.8370 -0.5390
vn 0.2934 0.4149 -0.8613
vn 0.3233 0.3094 -0.8943
vn -0.0950 0.8370 0.5390
vn -0.2934 0.4149 0.8613
vn -0.3233 0.3094 0.8943
vn 0.4043 -0.3151 -0.8586
vn -0.4043 -0.3151 0.8586
vn -0.5452 0.8325 -0.0983
vn -0.9046 0.2641 -0.3345
vn -0.9228 0.1294 -0.3628
vn 0.5452 0.8325 0.0983
vn 0.9046 0.2641 0.3346
vn 0.9228 0.1294 0.3628
vn -0.6926 -0.6124 -0.3812
vn 0.6926 -0.6124 0.3812
vt 0.865533 0.354903
vt 0.865533 0.566997
vt 0.743550 0.566997
vt 0.743550 0.354903
vt 0.621443 0.566997
vt 0.621443 0.354903
vt 0.499471 0.566997
vt 0.499471 0.354903
vt 0.377814 0.566997
vt 0.377814 0.354903
vt 0.256462 0.566997
vt 0.256462 0.354903
vt 0.135231 0.566997
vt 0.135231 0.354903
vt 0.013867 0.566997
vt 0.013867 0.354903
vt 0.987208 0.354903
vt 0.987207 0.566997
vt 0.865739 0.682677
vt 0.743632 0.700189
vt 0.621352 0.682677
vt 0.499263 0.700189
vt 0.377610 0.682677
vt 0.256381 0.700189
vt 0.135320 0.682677
vt 0.014074 0.700189
vt 0.987415 0.700189
vt 0.743622 0.225294
vt 0.865715 0.225294
vt 0.621363 0.225294
vt 0.499287 0.225294
vt 0.377634 0.225294
vt 0.256391 0.225294
vt 0.135310 0.225294
vt 0.014050 0.225294
vt 0.987391 0.225294
vt 0.743934 0.119838
vt 0.866492 0.119838
vt 0.621020 0.119838
vt 0.498497 0.119838
vt 0.376866 0.119838
vt 0.256088 0.119838
vt 0.135643 0.119838
vt 0.014831 0.119838
vt 0.988172 0.119838
vt 0.866405 0.759082
vt 0.743899 0.776594
vt 0.621059 0.759082
vt 0.498586 0.776594
vt 0.376951 0.759082
vt 0.256121 0.776594
vt 0.135605 0.759082
vt 0.014744 0.776594
vt 0.988084 0.776594
vt 0.807210 0.013585
vt 0.198872 0.013585
vt 0.867373 0.808845
vt 0.738658 0.810924
vt 0.606396 0.808845
vt 0.478014 0.810924
vt 0.357277 0.808845
vt 0.242606 0.810924
vt 0.130032 0.808845
vt 0.015145 0.810924
vt 0.988485 0.810924
vt 0.065574 0.824864
vt 0.088227 0.824246
vt 0.073228 0.988865
vt 0.043604 0.985068
vt 0.043924 0.818170
vt 0.014051 0.980749
vt 0.200224 0.824864
vt 0.221875 0.818170
vt 0.251746 0.980753
vt 0.222193 0.985070
vt 0.177571 0.824245
vt 0.192568 0.988867
vt 0.155403 0.828948
vt 0.162745 0.990486
vt 0.132899 0.826276
vt 0.132898 0.991578
vt 0.110395 0.828948
vt 0.103051 0.990485
vt 0.448960 0.950281
vt 0.459415 0.960736
vt 0.459417 0.975521
vt 0.434175 0.950287
vt 0.448963 0.985976
vt 0.423721 0.960743
vt 0.434178 0.985983
vt 0.423724 0.975528
vt 0.281860 0.819996
vt 0.293147 0.819996
vt 0.298194 0.916556
vt 0.262173 0.916561
vt 0.323943 0.819996
vt 0.335230 0.819996
vt 0.340277 0.916556
vt 0.304256 0.916561
vt 0.270539 0.988429
vt 0.312622 0.988429
vt 0.404789 0.819622
vt 0.419912 0.819433
vt 0.419911 0.917776
vt 0.388430 0.918173
vt 0.363896 0.819622
vt 0.379018 0.819433
vt 0.379018 0.917774
vt 0.347537 0.918171
vt 0.394518 0.991656
vt 0.353626 0.991656
s 1
usemtl TomatoMat
f 1/1/1 9/2/2 10/3/3 2/4/4
f 2/4/4 10/3/3 11/5/5 3/6/6
f 3/6/6 11/5/5 12/7/7 4/8/8
f 4/8/8 12/7/7 13/9/9 5/10/10
f 5/10/10 13/9/9 14/11/11 6/12/12
f 6/12/12 14/11/11 15/13/13 7/14/14
f 7/14/14 15/13/13 16/15/15 8/16/16
f 9/2/2 1/1/1 8/17/16 16/18/15
f 10/3/3 9/2/2 17/19/17 18/20/18
f 11/5/5 10/3/3 18/20/18 19/21/19
f 12/7/7 11/5/5 19/21/19 20/22/20
f 13/9/9 12/7/7 20/22/20 21/23/21
f 14/11/11 13/9/9 21/23/21 22/24/22
f 15/13/13 14/11/11 22/24/22 23/25/23
f 16/15/15 15/13/13 23/25/23 24/26/24
f 9/2/2 16/18/15 24/27/24 17/19/17
f 1/1/1 2/4/4 26/28/25 25/29/26
f 2/4/4 3/6/6 27/30/27 26/28/25
f 3/6/6 4/8/8 28/31/28 27/30/27
f 4/8/8 5/10/10 29/32/29 28/31/28
f 5/10/10 6/12/12 30/33/30 29/32/29
f 6/12/12 7/14/14 31/34/31 30/33/30
f 7/14/14 8/16/16 32/35/32 31/34/31
f 8/17/16 1/1/1 25/29/26 32/36/32
f 25/29/26 26/28/25 33/37/33 34/38/34
f 26/28/25 27/30/27 35/39/35 33/37/33
f 27/30/27 28/31/28 36/40/36 35/39/35
f 28/31/28 29/32/29 37/41/37 36/40/36
f 29/32/29 30/33/30 38/42/38 37/41/37
f 30/33/30 31/34/31 39/43/39 38/42/38
f 31/34/31 32/35/32 40/44/40 39/43/39
f 32/36/32 25/29/26 34/38/34 40/45/40
f 18/20/18 17/19/17 41/46/41 42/47/42
f 19/21/19 18/20/18 42/47/42 43/48/43
f 20/22/20 19/21/19 43/48/43 44/49/44
f 21/23/21 20/22/20 44/49/44 45/50/45
f 22/24/22 21/23/21 45/50/45 46/51/46
f 23/25/23 22/24/22 46/51/46 47/52/47
f 24/26/24 23/25/23 47/52/47 48/53/48
f 17/19/17 24/27/24 48/54/48 41/46/41
f 40/45/40 34/38/34 49/55/49
f 39/43/39 40/44/40 49/56/49
f 38/42/38 39/43/39 49/56/49
f 37/41/37 38/42/38 49/56/49
f 36/40/36 37/41/37 49/56/49
f 35/39/35 36/40/36 49/56/49
f 33/37/33 35/39/35 49/55/49
f 34/38/34 33/37/33 49/55/49
f 42/47/42 41/46/41 78/57/50 80/58/51
f 43/48/43 42/47/42 80/58/51 83/59/52
f 44/49/44 43/48/43 83/59/52 84/60/53
f 45/50/45 44/49/44 84/60/53 87/61/54
f 46/51/46 45/50/45 87/61/54 88/62/55
f 47/52/47 46/51/46 88/62/55 91/63/56
f 48/53/48 47/52/47 91/63/56 92/64/57
f 41/46/41 48/54/48 92/65/57 78/57/50
usemtl PepperStem
f 81/66/58 79/67/59 94/68/59 95/69/58
f 82/70/60 81/66/58 95/69/58 96/71/60
f 85/72/61 82/73/60 96/74/60 97/75/61
f 86/76/62 85/72/61 97/75/61 98/77/62
f 89/78/63 86/76/62 98/77/62 99/79/63
f 90/80/64 89/78/63 99/79/63 100/81/64
f 93/82/65 90/80/64 100/81/64 101/83/65
f 79/67/59 93/82/65 101/83/65 94/68/59
f 58/84/66 65/85/66 64/86/66 59/87/66
f 59/87/66 64/86/66 63/88/66 60/89/66
f 60/89/66 63/88/66 62/90/66 61/91/66
f 53/92/67 54/93/67 67/94/68 66/95/69
f 57/96/70 50/97/70 68/98/71 69/99/72
f 66/95/69 67/94/68 70/100/73
f 69/99/72 68/98/71 71/101/74
f 51/102/75 52/103/75 73/104/76 72/105/77
f 55/106/78 56/107/78 75/108/79 74/109/80
f 72/105/77 73/104/76 76/110/81
f 74/109/80 75/108/79 77/111/82
